<svg width="128" height="128" viewBox="0 0 128 128" xmlns="http://www.w3.org/2000/svg">
  <defs>
    <linearGradient id="gradient" x1="0%" y1="0%" x2="100%" y2="100%">
      <stop offset="0%" style="stop-color:#3498db;stop-opacity:1" />
      <stop offset="100%" style="stop-color:#2980b9;stop-opacity:1" />
    </linearGradient>
  </defs>
  
  <!-- Background circle -->
  <circle cx="64" cy="64" r="60" fill="url(#gradient)" stroke="#2c3e50" stroke-width="4"/>
  
  <!-- Translation symbol -->
  <g fill="white" stroke="white" stroke-width="2">
    <!-- Letter A -->
    <path d="M35 85 L45 60 L55 85 M40 75 L50 75" stroke-linecap="round" stroke-linejoin="round"/>
    
    <!-- Arrows -->
    <path d="M60 50 L68 50 M65 47 L68 50 L65 53" stroke-linecap="round"/>
    <path d="M68 75 L60 75 M63 72 L60 75 L63 78" stroke-linecap="round"/>
    
    <!-- Letter 中 (Chinese character) -->
    <g stroke-width="3">
      <rect x="75" y="45" width="18" height="25" fill="none" rx="2"/>
      <line x1="84" y1="45" x2="84" y2="70"/>
      <line x1="75" y1="57" x2="93" y2="57"/>
    </g>
  </g>
  
  <!-- Sparkle effects -->
  <g fill="white" opacity="0.8">
    <circle cx="25" cy="35" r="3"/>
    <circle cx="105" cy="25" r="2"/>
    <circle cx="110" cy="95" r="2.5"/>
    <circle cx="20" cy="95" r="2"/>
  </g>
</svg>